<?xml version="1.0" standalone="no"?>
<!DOCTYPE svg PUBLIC "-//W3C//DTD SVG 20010904//EN"
 "http://www.w3.org/TR/2001/REC-SVG-20010904/DTD/svg10.dtd">
<svg version="1.0" xmlns="http://www.w3.org/2000/svg"
 width="474.000000pt" height="245.000000pt" viewBox="0 0 474.000000 245.000000"
 preserveAspectRatio="xMidYMid meet">

<g transform="translate(0.000000,245.000000) scale(0.100000,-0.100000)"
fill="#000000" stroke="none">
<path d="M2320 2433 c-14 -3 -196 -54 -405 -114 -209 -61 -429 -124 -490 -141
-131 -36 -173 -56 -224 -107 -54 -54 -85 -123 -89 -201 -3 -55 25 -271 44
-332 5 -17 -4 -22 -67 -32 l-36 -6 -28 72 c-54 140 -116 249 -180 314 -78 80
-105 86 -230 54 -121 -31 -158 -52 -190 -111 -18 -34 -34 -51 -53 -55 -50 -12
-82 -34 -108 -74 -15 -22 -33 -40 -41 -40 -8 0 -28 -7 -46 -16 -66 -34 -88
-93 -88 -232 0 -56 2 -106 5 -111 10 -16 -24 -68 -59 -92 -33 -23 -35 -26 -35
-86 0 -54 4 -66 28 -91 30 -32 62 -52 86 -52 35 0 82 -46 115 -115 41 -83 122
-169 167 -178 18 -3 48 -1 68 4 31 9 44 7 80 -10 48 -24 79 -26 125 -10 26 9
35 8 49 -4 30 -26 80 -47 114 -47 37 0 191 40 225 59 33 17 70 71 83 121 16
60 14 267 -3 358 -10 53 -11 75 -3 77 35 11 68 11 72 1 3 -11 19 -97 75 -426
46 -271 73 -309 298 -425 69 -36 178 -92 241 -126 477 -253 503 -263 607 -241
63 13 845 420 904 470 56 48 94 135 118 277 12 66 35 198 51 294 17 96 32 177
35 180 2 4 20 5 41 3 l36 -4 -6 -47 c-22 -156 -28 -224 -22 -291 8 -103 22
-145 62 -189 29 -33 47 -42 132 -65 127 -34 157 -33 215 3 40 26 50 29 79 20
50 -14 80 -11 123 11 34 18 46 19 82 10 85 -21 166 41 232 176 33 67 81 114
117 114 27 0 69 28 84 54 7 14 17 26 22 26 4 0 8 29 8 63 0 63 -1 64 -35 83
-50 27 -61 61 -57 184 3 62 -1 124 -8 150 -14 53 -66 108 -110 116 -22 5 -39
18 -56 45 -25 40 -58 62 -111 73 -24 6 -34 15 -43 40 -18 57 -60 86 -167 117
-143 42 -177 38 -246 -29 -70 -67 -146 -198 -197 -340 -20 -55 -26 -63 -44
-58 -12 3 -30 6 -41 6 -45 1 -46 8 -19 160 30 166 28 242 -6 310 -25 51 -92
125 -131 145 -53 28 -1013 303 -1078 309 -25 2 -57 2 -71 -1z m596 -224 c541
-156 554 -161 601 -244 37 -66 38 -112 8 -294 -15 -91 -28 -170 -29 -175 0 -5
50 -19 111 -31 l113 -21 16 50 c24 73 93 222 130 281 46 72 104 125 145 131
46 7 205 -38 235 -67 14 -13 29 -39 35 -59 10 -33 17 -38 73 -56 52 -16 64
-25 82 -58 17 -30 32 -42 70 -55 80 -27 89 -48 89 -214 0 -102 3 -146 12 -155
7 -7 13 -22 13 -33 0 -13 10 -24 30 -31 36 -12 46 -43 30 -93 -13 -40 -39 -58
-73 -50 -18 5 -28 0 -41 -19 -9 -14 -24 -26 -34 -26 -12 0 -30 -24 -56 -79
-43 -90 -85 -145 -128 -167 -25 -13 -37 -14 -79 -3 -40 10 -54 11 -67 1 -46
-33 -62 -36 -122 -24 -59 12 -60 12 -101 -18 -50 -36 -77 -37 -179 -10 -103
28 -116 37 -142 89 -21 41 -23 60 -22 176 0 80 7 164 18 219 9 49 14 92 9 96
-9 8 -194 43 -199 38 -2 -2 -29 -150 -59 -328 -60 -345 -73 -389 -134 -437
-27 -21 -334 -186 -669 -358 -256 -132 -197 -142 -712 128 -451 236 -467 248
-495 342 -12 42 -95 498 -112 618 -3 20 -8 37 -12 37 -24 0 -188 -34 -195 -40
-5 -5 -1 -49 9 -102 11 -55 18 -142 19 -213 0 -102 -3 -127 -21 -167 -26 -56
-46 -70 -144 -97 -111 -31 -142 -27 -196 21 -20 19 -26 20 -87 7 -64 -12 -66
-12 -101 13 -35 25 -38 25 -82 12 -25 -8 -56 -11 -69 -8 -37 10 -100 86 -141
173 -25 53 -44 81 -55 81 -9 0 -26 11 -37 25 -15 20 -25 24 -44 20 -18 -5 -31
-1 -46 14 -44 44 -39 116 9 133 22 7 30 16 30 33 0 13 7 28 15 32 12 7 13 22
5 93 -20 166 7 242 95 272 39 12 53 23 62 47 16 37 43 56 104 71 40 10 48 16
53 42 11 56 61 92 163 117 57 14 103 20 122 16 69 -15 195 -207 252 -383 15
-48 28 -72 38 -72 9 0 60 7 114 17 80 14 97 20 97 34 0 10 -11 83 -25 161 -28
162 -31 224 -11 272 21 51 82 113 129 131 23 8 260 78 527 155 344 100 496
139 521 136 20 -2 261 -68 535 -147z"/>
<path d="M1900 2181 c-245 -70 -471 -136 -502 -145 -101 -29 -158 -98 -158
-190 0 -41 47 -332 55 -346 4 -7 234 26 242 33 2 3 -26 15 -61 28 -36 12 -64
24 -62 27 3 2 46 -8 97 -23 82 -23 102 -25 181 -19 48 3 88 10 88 13 0 4 -81
60 -180 125 -99 65 -183 122 -186 128 -8 12 23 -4 91 -47 76 -48 322 -185 332
-185 15 0 40 54 38 83 -1 22 -31 58 -126 155 -123 125 -112 120 65 -31 l69
-59 28 53 29 53 -53 85 c-89 141 -88 143 3 26 35 -44 66 -84 70 -88 4 -5 21
-2 38 7 17 9 42 16 57 16 14 0 25 5 25 10 0 6 -16 49 -35 97 -19 48 -33 88
-31 90 2 2 27 -41 56 -97 37 -73 58 -104 76 -111 31 -11 74 -2 74 17 0 19 -28
212 -36 244 -3 14 -3 22 1 18 4 -3 21 -62 38 -130 l32 -123 46 -3 46 -3 7 62
c3 34 7 98 7 143 2 123 16 46 18 -94 l1 -115 41 -23 c22 -13 42 -22 44 -20 2
2 21 68 44 148 46 165 50 160 17 -22 l-23 -128 34 -6 c19 -4 35 -5 37 -3 1 2
31 56 65 119 63 115 95 163 69 104 -7 -17 -33 -77 -57 -132 l-44 -101 24 -20
c14 -12 39 -20 59 -20 33 0 40 6 115 105 44 58 86 111 94 117 18 15 18 15 -67
-116 -34 -54 -65 -104 -68 -111 -3 -8 10 -19 35 -28 l39 -16 129 105 c155 127
206 162 138 97 -138 -132 -235 -227 -235 -231 0 -3 9 -16 20 -30 11 -14 20
-32 20 -39 0 -7 4 -15 9 -19 5 -3 90 39 188 93 223 123 223 124 223 118 0 -2
-90 -62 -199 -132 -114 -73 -195 -132 -188 -135 7 -4 56 -10 109 -14 88 -6
105 -4 188 20 106 31 133 27 35 -5 -36 -12 -63 -25 -60 -28 13 -13 227 -38
231 -27 9 29 54 315 54 345 -1 51 -32 113 -74 145 -24 18 -90 43 -208 77 -618
178 -835 238 -853 238 -11 -1 -220 -58 -465 -129z"/>
<path d="M665 1865 c-14 -13 -25 -29 -25 -35 0 -6 -4 -9 -9 -5 -5 3 -12 1 -16
-4 -3 -5 -14 -8 -25 -6 -11 2 -20 0 -20 -5 0 -4 -8 -7 -17 -5 -10 1 -24 -3
-32 -9 -12 -9 -12 -8 -3 11 18 32 15 38 -8 18 -11 -10 -25 -37 -31 -59 -20
-73 -31 -96 -48 -96 -9 -1 -33 -7 -53 -14 -41 -15 -43 -14 -28 15 7 13 7 19 1
19 -12 0 -35 -43 -45 -82 -7 -30 -35 -53 -80 -64 -26 -6 -29 -5 -23 15 8 32
-13 14 -29 -25 -16 -37 -18 -173 -5 -244 8 -39 7 -46 -11 -59 -17 -11 -19 -21
-15 -55 5 -33 3 -38 -6 -25 -9 11 -19 14 -34 8 -31 -11 -36 -25 -23 -65 12
-35 14 -36 51 -31 36 5 41 2 54 -24 10 -19 22 -28 36 -26 16 2 25 -11 48 -64
34 -79 83 -153 118 -176 22 -15 32 -15 84 -4 58 12 61 11 90 -14 36 -29 39
-30 108 -9 l52 15 34 -30 c49 -43 67 -45 168 -20 104 25 130 45 148 110 15 55
6 283 -16 388 -10 53 -12 77 -4 82 31 19 634 109 730 109 35 0 40 -3 35 -17
-4 -9 -10 -36 -13 -60 -11 -80 15 -123 169 -279 138 -141 139 -142 145 -195 3
-30 -3 -153 -12 -274 -22 -282 -23 -307 -8 -312 7 -3 15 6 18 19 5 25 30 279
40 426 4 51 10 91 12 88 3 -3 9 -31 14 -63 8 -58 8 -58 5 17 -2 47 -9 88 -20
108 -10 19 -16 36 -14 38 2 2 28 -5 56 -16 74 -28 111 -25 42 3 -88 37 -128
67 -256 195 -91 90 -126 132 -139 167 -17 44 -17 48 5 138 34 135 87 249 91
195 0 -7 6 3 12 22 l10 35 7 -30 c6 -22 8 -24 9 -9 0 12 9 32 19 44 15 18 24
21 50 15 45 -9 95 -59 87 -85 -3 -11 -3 -29 0 -40 8 -26 74 -60 115 -60 37 0
36 -15 -4 -44 -44 -33 -146 -29 -211 8 l-50 29 31 -34 c67 -72 66 -95 -6 -119
-23 -7 -44 -18 -47 -23 -6 -10 47 -2 90 15 35 13 40 8 27 -27 -17 -45 -2 -42
18 3 16 40 19 42 59 42 93 0 200 -62 254 -149 36 -56 38 -38 3 30 -14 28 -24
52 -22 54 12 9 76 25 102 25 17 0 55 -11 85 -25 62 -29 76 -27 32 5 -17 12
-31 25 -31 30 0 12 54 40 77 40 10 0 36 9 58 20 61 31 95 22 95 -26 0 -30 -12
-36 -46 -24 -40 15 -40 5 -1 -19 43 -26 55 -73 33 -125 -16 -40 -19 -41 -47
-26 -23 13 -26 -2 -4 -20 8 -7 15 -24 15 -39 0 -36 -52 -122 -94 -157 -20 -16
-50 -40 -66 -54 l-30 -25 -5 -170 c-6 -199 9 -199 20 0 9 146 23 209 25 105 0
-46 3 -61 10 -50 5 8 10 36 10 63 0 49 5 55 33 35 14 -11 17 -37 19 -168 l3
-155 11 85 11 85 3 -180 3 -180 11 115 11 115 3 -95 c3 -114 7 -130 27 -109
11 11 15 75 21 304 6 278 7 293 31 350 59 143 72 193 79 306 l7 112 91 -7
c154 -11 675 -92 691 -108 3 -2 -2 -36 -10 -74 -37 -179 -37 -384 0 -441 19
-29 35 -37 128 -62 102 -28 110 -27 156 14 l39 36 60 -16 c65 -16 84 -13 119
18 20 17 27 18 67 8 25 -6 55 -11 67 -11 34 0 89 67 137 168 31 66 48 92 58
88 8 -3 23 7 35 24 18 24 27 28 50 23 38 -7 59 12 59 54 0 41 -36 63 -58 35
-11 -14 -12 -11 -6 24 5 35 3 44 -15 56 -19 13 -20 19 -11 74 20 120 8 236
-27 265 -14 12 -15 11 -9 -9 8 -25 -6 -29 -50 -12 -33 13 -51 35 -59 75 -6 33
-32 72 -41 63 -3 -4 -1 -15 5 -26 11 -20 10 -20 -42 -4 -61 20 -73 33 -82 90
-4 25 -17 54 -32 70 -16 17 -23 21 -19 10 19 -56 18 -54 7 -36 -6 9 -20 15
-31 13 -11 -2 -20 2 -20 8 0 8 -3 8 -9 -1 -7 -11 -9 -11 -14 1 -3 9 -14 14
-24 13 -11 -2 -25 8 -35 25 -34 56 -93 45 -159 -28 -42 -47 -115 -188 -159
-308 -19 -49 -35 -92 -36 -94 -2 -2 -65 8 -141 22 -183 34 -380 63 -528 77
-172 16 -161 12 -179 74 -10 32 -28 65 -47 84 -35 35 -105 62 -156 62 -22 0
-47 10 -70 27 -30 23 -46 28 -98 28 -45 1 -69 6 -91 22 -69 48 -165 54 -218
12 -23 -18 -27 -19 -48 -5 -43 28 -98 29 -148 4 -35 -18 -51 -35 -72 -77 -16
-32 -28 -71 -28 -93 0 -22 -10 -56 -22 -78 -22 -38 -25 -39 -88 -45 -176 -17
-474 -58 -618 -85 -88 -16 -165 -30 -170 -30 -5 0 -24 41 -42 92 -67 187 -153
328 -221 363 -39 21 -56 19 -84 -10z m108 -49 c50 -51 112 -165 161 -294 38
-98 41 -112 28 -112 -4 0 -18 32 -31 71 -31 97 -113 257 -152 297 -51 52 -82
41 -93 -33 l-6 -40 16 43 c9 23 22 42 29 42 21 0 66 -59 98 -130 38 -82 96
-253 90 -262 -12 -21 -40 -4 -58 35 -11 23 -24 41 -30 39 -17 -5 -7 -109 19
-195 41 -134 80 -171 74 -69 -3 51 -1 57 17 57 17 0 23 -14 43 -110 25 -120
34 -297 16 -315 -14 -14 -55 18 -95 73 -41 57 -36 32 7 -31 19 -29 47 -58 61
-65 22 -10 28 -8 43 10 35 44 34 199 -4 380 -13 62 -14 84 -1 72 14 -15 38
-171 42 -281 8 -194 -19 -262 -87 -221 -129 76 -294 530 -307 843 -6 130 4
196 33 225 24 24 42 18 87 -29z m3275 35 c22 -14 42 -101 42 -185 0 -217 -98
-573 -209 -764 -44 -76 -113 -145 -139 -140 -36 6 -56 75 -55 188 0 137 31
330 53 330 5 0 5 -14 0 -32 -21 -81 -42 -258 -38 -320 6 -71 27 -118 54 -118
19 0 69 52 91 94 12 24 5 19 -36 -24 -38 -41 -54 -51 -62 -43 -28 28 -21 176
18 356 14 68 19 78 37 75 18 -3 20 -9 17 -60 -1 -36 2 -58 8 -58 37 0 116 274
92 317 -8 14 -12 12 -30 -18 -11 -19 -21 -40 -21 -46 0 -15 -36 -18 -44 -4 -9
14 61 207 106 294 58 112 88 122 115 39 l12 -37 -6 40 c-12 85 -44 98 -100 39
-39 -42 -112 -188 -145 -291 -13 -40 -27 -73 -32 -73 -12 0 0 42 45 155 47
118 117 234 162 270 34 27 45 29 65 16z m-1772 -46 c-18 -14 -17 -15 25 -16
l44 -2 -40 -6 -40 -7 52 -7 c36 -5 56 -14 63 -27 5 -10 10 -84 10 -165 0 -142
-1 -147 -25 -170 -15 -16 -36 -25 -54 -25 -55 0 -44 29 12 31 18 0 19 2 5 7
-16 7 -16 9 2 37 43 65 8 129 -83 154 l-44 13 -6 65 c-7 73 1 96 41 117 37 20
64 21 38 1z m-196 -20 c0 -2 -15 -9 -32 -14 -32 -9 -32 -9 15 -10 55 -1 81
-21 96 -77 6 -21 9 -39 7 -41 -2 -2 -19 5 -38 15 -53 30 -91 35 -133 18 -21
-9 -40 -16 -42 -16 -13 0 10 67 33 97 20 26 32 33 60 33 18 0 34 -2 34 -5z
m436 -34 c-4 -5 0 -12 6 -14 8 -3 6 -6 -5 -6 -27 -1 -10 -21 18 -21 14 0 29
-8 35 -19 14 -26 13 -254 -1 -284 -22 -48 -97 -62 -142 -27 -21 17 -24 25 -18
48 5 15 11 63 15 107 11 127 26 199 44 213 18 14 56 17 48 3z m199 -60 c-18
-7 -17 -9 10 -19 23 -8 25 -11 10 -12 -13 -1 -9 -5 15 -13 32 -11 35 -16 38
-56 4 -56 -32 -176 -63 -207 -29 -29 -74 -31 -104 -6 l-22 17 21 134 c11 73
25 142 31 152 7 14 20 19 47 18 28 0 32 -2 17 -8z m-455 -139 c41 -20 48 -55
13 -60 -33 -5 -103 35 -103 58 0 26 41 27 90 2z m1868 -40 c1 15 7 30 14 34 8
5 9 -2 4 -26 -8 -43 4 -32 14 12 l8 33 2 -40 c2 -35 3 -37 10 -15 7 23 8 23
10 -10 l2 -35 14 45 14 45 -4 -50 -4 -50 13 40 13 40 1 -36 c2 -93 -62 -340
-119 -460 -26 -56 -33 -52 -14 8 3 10 -4 2 -16 -17 -12 -19 -19 -28 -17 -20
17 59 16 63 -3 28 -26 -48 -35 -49 -15 -2 22 54 18 55 -11 4 -14 -25 -23 -38
-21 -30 19 67 19 67 2 37 -19 -33 -33 -30 -15 3 6 12 9 24 7 27 -3 3 -12 -8
-21 -24 -23 -43 -19 -20 14 74 38 107 75 253 92 363 13 83 13 84 19 40 4 -26
7 -34 7 -18z m137 -126 c-9 -55 -30 -145 -47 -200 -28 -97 -91 -246 -102 -246
-3 0 5 24 17 53 57 128 117 354 134 507 7 66 8 70 11 30 2 -25 -4 -90 -13
-144z m-3784 54 c15 -107 65 -300 100 -389 42 -106 44 -112 15 -61 -61 108
-137 403 -135 518 1 31 3 46 5 32 2 -14 9 -59 15 -100z m139 80 c1 24 8 4 20
-60 21 -112 62 -267 95 -359 26 -70 26 -91 1 -44 -17 32 -21 26 -6 -11 13 -34
5 -33 -15 2 -9 15 -14 20 -12 12 16 -58 15 -61 -8 -20 -15 25 -24 38 -22 30
18 -63 18 -65 -3 -30 -12 19 -19 27 -16 17 4 -11 8 -31 11 -45 4 -21 1 -18
-16 13 -20 39 -21 26 -3 -32 3 -10 -7 4 -21 30 -56 103 -127 372 -124 470 1
40 2 40 9 12 l8 -30 2 35 2 35 14 -40 14 -40 -6 45 c-7 53 6 47 16 -7 l8 -38
2 45 c2 42 3 43 10 15 l8 -30 2 35 2 35 13 -40 13 -40 2 35z m2392 -25 c166
-20 410 -54 423 -60 11 -6 -21 -2 -245 25 -85 10 -198 22 -250 26 -52 4 -106
10 -120 15 -44 13 46 10 192 -6z m-1163 0 c-3 -2 -56 -9 -119 -15 -101 -10
-217 -24 -385 -46 -27 -4 -48 -4 -45 -1 5 5 215 37 365 56 78 9 191 14 184 6z
m-1500 -304 c12 -46 33 -111 45 -145 37 -94 39 -104 15 -61 -53 96 -106 294
-114 433 -5 77 -5 77 14 -33 10 -60 28 -148 40 -194z m4097 227 c-12 -116 -45
-255 -88 -365 -21 -57 -44 -105 -49 -108 -5 -3 1 16 12 42 36 84 87 266 99
353 19 142 21 150 27 150 3 0 2 -33 -1 -72z m-3927 -306 c33 -98 37 -117 21
-92 -7 11 -10 11 -10 2 0 -7 -4 -11 -9 -8 -5 3 -12 -2 -16 -12 -6 -16 -7 -16
-21 2 -8 11 -14 14 -14 7 0 -7 -5 -9 -12 -5 -8 5 -9 1 -5 -12 7 -18 7 -18 -7
0 -24 30 -76 183 -97 281 -21 100 -25 170 -9 145 8 -12 10 -12 10 5 0 17 2 17
10 5 8 -12 10 -12 11 5 l0 20 9 -20 9 -20 0 20 c1 17 3 17 11 5 9 -13 10 -13
10 0 0 13 1 13 10 0 8 -12 10 -10 10 10 1 14 14 -36 29 -110 16 -74 42 -177
60 -228z m3802 333 l8 20 0 -20 c1 -17 3 -17 11 -5 8 12 10 12 11 -5 l0 -20 9
20 9 20 0 -20 c1 -17 3 -17 11 -5 8 12 10 12 11 -5 l0 -20 9 20 c30 69 -7
-164 -44 -275 -35 -108 -66 -176 -74 -164 -4 6 -15 10 -24 9 -11 -2 -15 2 -11
13 4 10 2 13 -5 8 -7 -4 -12 -2 -12 5 0 7 -7 4 -15 -7 -15 -18 -15 -18 -8 0 5
15 3 17 -7 11 -9 -6 -12 -4 -8 6 29 76 71 229 90 325 13 66 24 108 27 94 3
-23 4 -24 12 -5z m-3044 -21 c-3 -3 -12 -4 -19 -1 -8 3 -5 6 6 6 11 1 17 -2
13 -5z m2210 0 c-3 -3 -12 -4 -19 -1 -8 3 -5 6 6 6 11 1 17 -2 13 -5z m-3197
-144 c7 -41 25 -116 41 -166 35 -111 36 -124 7 -125 -13 0 -31 -2 -40 -4 -19
-4 -58 91 -89 220 -28 118 -26 142 14 159 43 18 51 8 67 -84z m4224 83 c4 -5
13 -8 19 -8 41 -1 -45 -352 -89 -369 -26 -10 -64 5 -64 25 0 10 11 51 24 91
14 40 32 111 41 158 9 47 18 91 20 98 5 13 37 16 49 5z"/>
<path d="M786 1511 c-20 -22 -22 -124 -4 -201 16 -71 67 -169 100 -193 22 -17
30 -18 43 -7 8 7 15 22 14 34 0 20 -1 20 -10 -2 -5 -13 -15 -22 -21 -20 -60
20 -149 340 -105 376 12 10 19 7 41 -18 28 -34 36 -28 10 8 -25 36 -49 44 -68
23z"/>
<path d="M3903 1507 c-34 -38 -37 -53 -5 -23 l31 29 11 -27 c21 -55 -29 -265
-80 -336 -25 -34 -35 -37 -49 -12 -9 15 -10 15 -11 1 0 -9 7 -22 15 -29 53
-44 155 164 155 315 0 87 -30 124 -67 82z"/>
<path d="M2445 1393 c16 -16 59 -23 75 -13 12 8 10 10 -10 10 -14 0 -36 3 -50
6 -17 5 -22 3 -15 -3z"/>
<path d="M2625 1390 c3 -5 25 -10 47 -10 51 0 47 5 -10 14 -29 4 -41 3 -37 -4z"/>
<path d="M1713 1373 c-70 -5 -68 -23 2 -23 42 0 55 3 55 15 0 8 -1 14 -2 13
-2 -1 -27 -3 -55 -5z"/>
<path d="M2945 1370 c-4 -6 14 -10 46 -10 61 0 61 5 2 14 -24 3 -44 2 -48 -4z"/>
<path d="M1422 1335 c-46 -7 -86 -16 -90 -19 -3 -4 4 -64 16 -134 92 -531 90
-525 120 -567 24 -34 65 -59 297 -182 149 -78 273 -142 276 -143 6 0 29 263
24 269 -2 1 -20 -28 -39 -65 -19 -38 -35 -66 -36 -62 0 3 20 59 45 123 42 108
46 124 43 193 l-3 76 -119 -147 c-65 -81 -121 -147 -123 -147 -3 0 1 9 8 20
230 332 234 339 213 360 -20 20 -20 20 -129 -71 -252 -210 -266 -217 -90 -45
l170 166 -29 24 -30 25 -50 -28 c-118 -65 -350 -183 -341 -174 6 6 89 59 185
118 96 59 177 109 179 111 7 6 -41 54 -54 54 -7 0 -85 -21 -174 -46 -90 -25
-165 -44 -167 -42 -2 3 56 26 129 52 72 26 144 53 160 59 l27 12 -22 33 -23
32 -145 -4 c-151 -6 -143 1 33 24 l88 12 -3 46 -3 46 -110 18 c-129 20 -126
20 -233 3z"/>
<path d="M3050 1331 l-105 -16 -3 -46 -3 -45 143 -18 c221 -28 228 -34 32 -28
l-182 5 -7 -32 c-4 -18 -5 -34 -3 -35 1 -1 74 -29 160 -61 87 -32 157 -60 155
-61 -2 -2 -75 17 -162 41 -88 25 -163 45 -166 45 -3 0 -13 -18 -22 -40 l-15
-39 164 -102 c90 -56 164 -103 164 -105 0 -2 -77 35 -171 82 -180 90 -188 91
-189 34 0 -19 28 -53 110 -135 61 -60 110 -113 110 -118 0 -4 -48 33 -106 83
-69 59 -110 87 -114 80 -4 -6 -8 -45 -9 -86 -2 -59 2 -80 17 -102 10 -15 29
-45 42 -67 l23 -40 -41 45 -41 45 -1 -128 0 -128 148 77 c81 42 175 92 209
111 93 51 106 79 148 320 67 382 77 444 72 449 -7 8 -188 34 -222 32 -16 0
-77 -8 -135 -17z"/>
<path d="M2517 1228 c4 -7 23 -37 42 -66 33 -52 49 -63 37 -24 -9 29 -64 102
-77 102 -6 0 -7 -5 -2 -12z"/>
<path d="M2404 940 c-17 -11 -58 -24 -90 -29 -51 -7 -55 -9 -31 -15 41 -12 94
2 130 34 38 34 34 38 -9 10z"/>
<path d="M2478 680 c-15 -131 -21 -327 -10 -334 13 -8 24 146 20 289 -3 106
-3 108 -10 45z"/>
</g>
</svg>
